<svg width="21" height="21" viewBox="0 0 21 21" fill="none" xmlns="http://www.w3.org/2000/svg">
<path opacity="0.2" d="M14.9069 0H6.11405C2.27964 0 0 2.27964 0 6.10355V14.8965C0 18.7204 2.27964 21 6.10354 21H14.8964C18.7203 21 21 18.7204 21 14.8965V6.10355C21.0105 2.27964 18.7308 0 14.9069 0Z" fill="#000080"/>
<path d="M6 4C4.89543 4 4 4.89543 4 6V16C4 17.1046 4.89543 18 6 18H16C17.1046 18 18 17.1046 18 16V6C18 4.89543 17.1046 4 16 4H6ZM16.6151 11.2349L14.6099 13.2401C14.5448 13.3051 14.4598 13.3375 14.3753 13.3375C14.2902 13.3375 14.2052 13.3051 14.1402 13.2401C14.0104 13.1103 14.0104 12.9005 14.1402 12.7708C14.671 12.2399 14.295 11.3323 13.5443 11.3323H12.5757C11.8887 11.3323 11.3318 11.8892 11.3318 12.5761V13.5448C11.3318 14.2955 12.2395 14.6714 12.7703 14.1406C12.9 14.0109 13.1103 14.0109 13.2401 14.1406C13.3698 14.2703 13.3698 14.4802 13.2401 14.6099L11.2349 16.6155C11.1724 16.6775 11.0879 16.7125 10.9998 16.7125C10.9117 16.7125 10.8276 16.6775 10.7651 16.6155L8.75994 14.6099C8.63021 14.4802 8.63021 14.2703 8.75994 14.1406C8.88966 14.0109 9.09997 14.0109 9.22925 14.1406C9.76008 14.6714 10.6677 14.2955 10.6677 13.5448V12.5761C10.6677 11.8892 10.1108 11.3323 9.42386 11.3323H8.45523C7.70452 11.3323 7.32856 12.2399 7.8594 12.7708C7.98912 12.9005 7.98912 13.1103 7.8594 13.2401C7.79476 13.3051 7.70975 13.3375 7.62474 13.3375C7.53974 13.3375 7.45473 13.3051 7.39009 13.2401L5.38446 11.2349C5.32248 11.1724 5.2875 11.0883 5.2875 11.0002C5.2875 10.9121 5.32248 10.8276 5.38446 10.7651L7.39009 8.75994C7.51981 8.63021 7.72967 8.63021 7.8594 8.75994C7.98912 8.88966 7.98912 9.09997 7.8594 9.22969C7.32856 9.76052 7.70452 10.6682 8.45523 10.6682H9.42386C10.1108 10.6682 10.6677 10.1113 10.6677 9.42431V8.45568C10.6677 7.70497 9.76008 7.32901 9.22925 7.85984C9.09952 7.98956 8.88966 7.98956 8.75994 7.85984C8.63021 7.73012 8.63021 7.51981 8.75994 7.39009L10.7651 5.3849C10.8948 5.25518 11.1052 5.25518 11.2349 5.3849L13.2401 7.39009C13.3698 7.51981 13.3698 7.73012 13.2401 7.85984C13.175 7.92448 13.09 7.9568 13.0054 7.9568C12.9204 7.9568 12.8354 7.92448 12.7703 7.85984C12.2395 7.32901 11.3318 7.70496 11.3318 8.45567V9.4243C11.3318 10.1113 11.8887 10.6682 12.5757 10.6682H13.5443C14.295 10.6682 14.671 9.76052 14.1402 9.22969C14.0104 9.09997 14.0104 8.88966 14.1402 8.75994C14.2699 8.63021 14.4802 8.63021 14.6099 8.75994L16.6151 10.7651C16.7448 10.8948 16.7448 11.1052 16.6151 11.2349Z" fill="#000080"/>
</svg>
