<svg width="20" height="20" viewBox="0 0 20 20" fill="none" xmlns="http://www.w3.org/2000/svg">
<path d="M18.3332 14.5833H1.6665" stroke="#526360" stroke-width="1.5" stroke-linecap="round" stroke-linejoin="round"/>
<path d="M18.3332 17.5V13.3333C18.3332 11.762 18.3332 10.9763 17.845 10.4882C17.3568 10 16.5712 10 14.9998 10H4.99984C3.42849 10 2.64281 10 2.15466 10.4882C1.6665 10.9763 1.6665 11.762 1.6665 13.3333V17.5" stroke="#526360" stroke-width="1.5" stroke-linecap="round" stroke-linejoin="round"/>
<path d="M13.3332 10V8.84817C13.3332 8.42525 13.2569 8.28378 12.8662 8.11708C12.0524 7.76991 11.0647 7.5 9.99984 7.5C8.935 7.5 7.94724 7.76991 7.1335 8.11708C6.74279 8.28378 6.6665 8.42525 6.6665 8.84817V10" stroke="#526360" stroke-width="1.5" stroke-linecap="round"/>
<path d="M16.6668 10V6.13381C16.6668 5.55744 16.6668 5.26926 16.5245 4.99711C16.3822 4.72496 16.1794 4.58409 15.7738 4.30236C14.1386 3.16648 12.1478 2.5 10.0002 2.5C7.85251 2.5 5.86175 3.16648 4.22652 4.30236C3.82093 4.58409 3.61814 4.72496 3.47582 4.99711C3.3335 5.26926 3.3335 5.55744 3.3335 6.13381V10" stroke="#526360" stroke-width="1.5" stroke-linecap="round"/>
</svg>
