<svg width="24" height="24" viewBox="0 0 24 24" fill="none" xmlns="http://www.w3.org/2000/svg">
<path opacity="0.2" d="M16.9069 1H8.11405C4.27964 1 2 3.27964 2 7.10355V15.8965C2 19.7204 4.27964 22 8.10354 22H16.8964C20.7203 22 23 19.7204 23 15.8965V7.10355C23.0105 3.27964 20.7308 1 16.9069 1Z" fill="#000080"/>
<path d="M17.6 11V5.66667C17.6 5.48986 17.5263 5.32029 17.395 5.19526C17.2637 5.07024 17.0857 5 16.9 5C16.7143 5 16.5363 5.07024 16.405 5.19526C16.2737 5.32029 16.2 5.48986 16.2 5.66667V7H7.8V5.66667C7.8 5.48986 7.72625 5.32029 7.59497 5.19526C7.4637 5.07024 7.28565 5 7.1 5C6.91435 5 6.7363 5.07024 6.60503 5.19526C6.47375 5.32029 6.4 5.48986 6.4 5.66667V11C6.0287 11 5.6726 11.1405 5.41005 11.3905C5.1475 11.6406 5 11.9797 5 12.3333V16.3333C5 16.5101 5.07375 16.6797 5.20503 16.8047C5.3363 16.9298 5.51435 17 5.7 17C5.88565 17 6.0637 16.9298 6.19497 16.8047C6.32625 16.6797 6.4 16.5101 6.4 16.3333V15H17.6V16.3333C17.6 16.5101 17.6737 16.6797 17.805 16.8047C17.9363 16.9298 18.1143 17 18.3 17C18.4857 17 18.6637 16.9298 18.795 16.8047C18.9263 16.6797 19 16.5101 19 16.3333V12.3333C19 11.9797 18.8525 11.6406 18.5899 11.3905C18.3274 11.1405 17.9713 11 17.6 11ZM11.3 11H7.8V10.3333C7.8 10.1565 7.87375 9.98695 8.00503 9.86193C8.1363 9.7369 8.31435 9.66667 8.5 9.66667H10.6C10.7857 9.66667 10.9637 9.7369 11.095 9.86193C11.2263 9.98695 11.3 10.1565 11.3 10.3333V11ZM16.2 11H12.7V10.3333C12.7 10.1565 12.7737 9.98695 12.905 9.86193C13.0363 9.7369 13.2143 9.66667 13.4 9.66667H15.5C15.6857 9.66667 15.8637 9.7369 15.995 9.86193C16.1263 9.98695 16.2 10.1565 16.2 10.3333V11Z" fill="#000080"/>
</svg>
