<svg width="125" height="124" viewBox="0 0 125 124" fill="none" xmlns="http://www.w3.org/2000/svg">
<path d="M124.5 64.9062C124.5 69.2414 123.459 73.2617 121.376 76.943C119.293 80.6242 116.508 83.5062 112.996 85.5164C113.093 86.1703 113.141 87.1875 113.141 88.568C113.141 95.1313 110.938 100.702 106.578 105.303C102.195 109.929 96.9148 112.23 90.7391 112.23C87.9781 112.23 85.3383 111.721 82.8438 110.704C80.9062 114.676 78.1211 117.873 74.4641 120.319C70.8312 122.789 66.8352 124 62.5 124C58.068 124 54.0477 122.813 50.4633 120.391C46.8547 117.994 44.0938 114.773 42.1562 110.704C39.6617 111.721 37.0461 112.23 34.2609 112.23C28.0852 112.23 22.7812 109.929 18.3492 105.303C13.9172 100.702 11.7133 95.107 11.7133 88.568C11.7133 87.8414 11.8102 86.8242 11.9797 85.5164C8.46797 83.482 5.68281 80.6242 3.6 76.943C1.54141 73.2617 0.5 69.2414 0.5 64.9062C0.5 60.3047 1.6625 56.0664 3.96328 52.2398C6.26406 48.4133 9.36406 45.5797 13.2391 43.7391C12.2219 40.9781 11.7133 38.193 11.7133 35.432C11.7133 28.893 13.9172 23.2984 18.3492 18.6969C22.7812 14.0953 28.0852 11.7703 34.2609 11.7703C37.0219 11.7703 39.6617 12.2789 42.1562 13.2961C44.0938 9.32422 46.8789 6.12734 50.5359 3.68125C54.1688 1.23516 58.1648 0 62.5 0C66.8352 0 70.8312 1.23516 74.4641 3.65703C78.0969 6.10313 80.9062 9.3 82.8438 13.2719C85.3383 12.2547 87.9539 11.7461 90.7391 11.7461C96.9148 11.7461 102.195 14.0469 106.578 18.6727C110.962 23.2984 113.141 28.8687 113.141 35.4078C113.141 38.4594 112.681 41.2203 111.761 43.7148C115.636 45.5555 118.736 48.3891 121.037 52.2156C123.338 56.0664 124.5 60.3047 124.5 64.9062ZM59.8602 83.5789L85.4594 45.2406C86.1133 44.2234 86.307 43.1094 86.0891 41.9227C85.8469 40.7359 85.2414 39.7914 84.2242 39.1617C83.207 38.5078 82.093 38.2898 80.9062 38.4594C79.6953 38.6531 78.7266 39.2344 78 40.2516L55.4523 74.1578L45.0625 63.7922C44.1422 62.8719 43.0766 62.4359 41.8898 62.4844C40.6789 62.5328 39.6375 62.9688 38.7172 63.7922C37.8937 64.6156 37.482 65.657 37.482 66.9164C37.482 68.1516 37.8937 69.193 38.7172 70.0406L52.982 84.3055L53.6844 84.8625C54.5078 85.4195 55.3555 85.6859 56.1789 85.6859C57.8016 85.6617 59.0367 84.9836 59.8602 83.5789Z" fill="#000080"/>
</svg>
