<svg width="21" height="21" viewBox="0 0 21 21" fill="none" xmlns="http://www.w3.org/2000/svg">
<path opacity="0.2" d="M14.9069 0H6.11405C2.27964 0 0 2.27964 0 6.10355V14.8965C0 18.7204 2.27964 21 6.10354 21H14.8964C18.7203 21 21 18.7204 21 14.8965V6.10355C21.0105 2.27964 18.7308 0 14.9069 0Z" fill="#000080"/>
<path d="M15.1816 7.91869L13.1341 14.5162C12.6441 16.0824 10.4478 16.1087 9.93159 14.5512L9.31909 12.7399C9.15284 12.2412 8.75909 11.8387 8.26034 11.6812L6.44034 11.0687C4.89159 10.5524 4.91784 8.33869 6.48409 7.86619L13.0816 5.80994C14.3766 5.41619 15.5928 6.63244 15.1816 7.91869Z" fill="#000080"/>
</svg>
