<svg width="32" height="32" viewBox="0 0 32 32" fill="none" xmlns="http://www.w3.org/2000/svg">
<path opacity="0.2" d="M21.3266 4H11.6963C7.49674 4 5 6.49675 5 10.6848V20.3152C5 24.5033 7.49675 27 11.6848 27H21.3151C25.5032 27 28 24.5033 28 20.3152V10.6848C28.0115 6.49675 25.5147 4 21.3266 4Z" fill="#000080"/>
<path d="M18.2854 10.8572H22.8569V16C22.8569 18.2909 21.5546 19.92 19.2603 20.6726L19.9997 24H11.9997L12.7391 20.6726C10.4449 19.92 9.14258 18.2909 9.14258 16H18.2854V10.8572Z" fill="#000080"/>
<path d="M17.1426 14.8571H9.14258V14.2857C9.14258 14.1342 9.20278 13.9888 9.30995 13.8817C9.41711 13.7745 9.56245 13.7143 9.71401 13.7143H16.5711C16.7227 13.7143 16.868 13.7745 16.9752 13.8817C17.0824 13.9888 17.1426 14.1342 17.1426 14.2857V14.8571ZM22.8569 9.14286V9.71429H18.2854V9.14286C18.2854 8.83975 18.4058 8.54906 18.6202 8.33474C18.8345 8.12041 19.1252 8 19.4283 8H21.714C22.0171 8 22.3078 8.12041 22.5221 8.33474C22.7365 8.54906 22.8569 8.83975 22.8569 9.14286Z" fill="#000080"/>
</svg>
