<svg width="20" height="20" viewBox="0 0 20 20" fill="none" xmlns="http://www.w3.org/2000/svg">
<path d="M6.6665 9.16675H14.2791C15.4999 9.16675 16.1103 9.16675 16.4789 9.7795C16.8475 10.3922 16.6304 10.7828 16.1963 11.5642C15.3346 13.1151 13.6628 14.1667 11.7416 14.1667C10.4545 14.1667 9.27925 13.6947 8.38467 12.9167" stroke="#526360" stroke-width="1.5" stroke-linecap="round" stroke-linejoin="round"/>
<path d="M6.66683 9.16675V3.33341C6.66683 2.54774 6.66683 2.15491 6.42275 1.91082C6.17867 1.66675 5.78584 1.66675 5.00016 1.66675C4.21449 1.66675 3.82165 1.66675 3.57757 1.91082C3.3335 2.15491 3.3335 2.54774 3.3335 3.33341V9.16675C3.3335 9.95242 3.3335 10.3452 3.57757 10.5893C3.82165 10.8334 4.21449 10.8334 5.00016 10.8334C5.78584 10.8334 6.17867 10.8334 6.42275 10.5893C6.66683 10.3452 6.66683 9.95242 6.66683 9.16675Z" stroke="#526360" stroke-width="1.5" stroke-linecap="round" stroke-linejoin="round"/>
<path d="M5.8335 5.83325H8.3335" stroke="#526360" stroke-width="1.5" stroke-linecap="round" stroke-linejoin="round"/>
<path d="M13.3335 14.1666C12.5002 14.9999 13.3335 17.4999 14.9998 18.3333H3.3335C4.16683 17.4999 5.5835 14.8333 4.5835 10.8333" stroke="#526360" stroke-width="1.5" stroke-linecap="round" stroke-linejoin="round"/>
</svg>
